<svg width="32" height="32" viewBox="0 0 32 32" fill="none" xmlns="http://www.w3.org/2000/svg">
<g clip-path="url(#clip0)">
<path d="M13.7098 17.7438C13.7098 16.0404 12.324 14.6546 10.6206 14.6546C8.91713 14.6546 7.53125 16.0404 7.53125 17.7438H9.40624C9.40624 17.0743 9.95101 16.5296 10.6206 16.5296C11.2901 16.5296 11.8348 17.0743 11.8348 17.7438H13.7098Z" fill="#C4C4C4"/>
<path d="M21.3798 14.6545C19.6763 14.6545 18.2905 16.0404 18.2905 17.7438H20.1655C20.1655 17.0742 20.7102 16.5295 21.3798 16.5295C22.0493 16.5295 22.5941 17.0742 22.5941 17.7438H24.4691C24.4691 16.0404 23.0832 14.6545 21.3798 14.6545Z" fill="#C4C4C4"/>
<path d="M16 23.2301C14.8146 23.2301 13.7032 22.5944 13.0992 21.571L11.4844 22.5238C12.4239 24.116 14.1542 25.105 16 25.105C17.8457 25.105 19.576 24.116 20.5156 22.5238L18.9007 21.5709C18.2969 22.5943 17.1854 23.2301 16 23.2301Z" fill="#C4C4C4"/>
<path d="M30.7801 14.423C30.1829 13.8266 29.4331 13.4322 28.6192 13.2778C26.8614 7.84607 21.7625 4.10626 16 4.10626H15.3714C13.862 4.10626 12.634 2.87817 12.634 1.36877H10.759C10.759 2.39304 11.095 3.34002 11.6619 4.10626H11.0679C9.55844 4.10626 8.33041 2.87817 8.33041 1.36877H6.45541C6.45541 3.40598 7.78343 5.13774 9.61877 5.74676C6.71603 7.3426 4.44084 10.0023 3.38091 13.2778C2.56699 13.4322 1.81694 13.8267 1.2193 14.4237C0.433017 15.2108 0 16.2567 0 17.3688C0 18.4672 0.42372 19.5034 1.19318 20.2868C1.79455 20.8991 2.55402 21.303 3.38091 21.4598C5.13853 26.8915 10.2375 30.6313 16 30.6313C21.7625 30.6313 26.8614 26.8915 28.6191 21.4598C29.446 21.303 30.2054 20.8991 30.8068 20.2868C31.5763 19.5034 32 18.4672 32 17.3688C32 16.2567 31.567 15.2108 30.7801 14.423ZM27.8804 19.6576L27.1769 19.671L26.9931 20.3502C25.6547 25.2996 21.1342 28.7562 15.9999 28.7562C10.8657 28.7562 6.34524 25.2996 5.00686 20.3502L4.82314 19.671L4.11957 19.6576C2.88187 19.6342 1.87493 18.6075 1.87493 17.3688C1.87493 16.7572 2.11316 16.1819 2.54498 15.7495C2.96611 15.3288 3.52529 15.091 4.11938 15.0799L4.82308 15.0666L5.00679 14.3872C6.34524 9.43799 10.8658 5.98132 16 5.98132C17.6946 5.98132 19.0732 7.35993 19.0732 9.05449C19.0732 10.7491 17.6946 12.1277 16 12.1277C14.3054 12.1277 12.9268 10.7491 12.9268 9.05456H11.0518C11.0518 11.783 13.2716 14.0027 16 14.0027C18.7284 14.0027 20.9482 11.783 20.9482 9.05456C20.9482 8.27807 20.7679 7.54314 20.4478 6.88846C23.5925 8.22609 26.0623 10.9456 26.9931 14.3873L27.1769 15.0667L27.8806 15.0799C28.4747 15.0911 29.0338 15.3289 29.4543 15.7488C29.8868 16.1819 30.1251 16.7572 30.1251 17.3688C30.125 18.6076 29.1181 19.6343 27.8804 19.6576Z" fill="#C4C4C4"/>
</g>
<defs>
<clipPath id="clip0">
<rect width="32" height="32" fill="white"/>
</clipPath>
</defs>
</svg>
