<svg width="32" height="32" viewBox="0 0 32 32" fill="none" xmlns="http://www.w3.org/2000/svg">
<path d="M9.08104 18.4864C7.59073 18.4864 6.37817 19.6988 6.37817 21.1891C6.37817 22.6795 7.59073 23.8919 9.08104 23.8919C10.5714 23.8919 11.7839 22.6795 11.7839 21.1891C11.7839 19.6988 10.5714 18.4864 9.08104 18.4864ZM9.08104 21.7297C8.78291 21.7297 8.54038 21.4873 8.54038 21.1891C8.54038 20.891 8.78291 20.6486 9.08104 20.6486C9.37917 20.6486 9.6217 20.891 9.6217 21.1891C9.6217 21.4873 9.37928 21.7297 9.08104 21.7297Z" fill="#C4C4C4"/>
<path d="M23.0271 18.4864C21.5368 18.4864 20.3242 19.6988 20.3242 21.1891C20.3242 22.6795 21.5368 23.8919 23.0271 23.8919C24.5174 23.8919 25.73 22.6795 25.73 21.1891C25.73 19.6988 24.5174 18.4864 23.0271 18.4864ZM23.0271 21.7297C22.729 21.7297 22.4864 21.4873 22.4864 21.1891C22.4864 20.891 22.729 20.6486 23.0271 20.6486C23.3253 20.6486 23.5679 20.891 23.5679 21.1891C23.5679 21.4873 23.3252 21.7297 23.0271 21.7297Z" fill="#C4C4C4"/>
<path d="M30.9189 7.78356H30.0879V5.40511C30.0879 2.78219 27.9539 0.648315 25.331 0.648315H6.7771C4.15418 0.648315 2.02031 2.78229 2.02031 5.40511V7.78356H1.0811C0.484094 7.78356 0 8.26755 0 8.86456V12.6656C0 13.2626 0.484094 13.7466 1.0811 13.7466H2.02031V23.027C2.02031 24.5005 2.69382 25.8195 3.74906 26.6927C3.74906 26.696 3.74853 26.6993 3.74853 26.7027V28.5407C3.74853 30.0907 5.00935 31.3515 6.55935 31.3515H8.45145C10.0015 31.3515 11.2624 30.0907 11.2624 28.5407V27.7839H20.8459V28.5407C20.8459 30.0907 22.1068 31.3515 23.6567 31.3515H25.5487C27.0987 31.3515 28.3596 30.0907 28.3596 28.5407V26.7027C28.3596 26.6993 28.3591 26.696 28.3591 26.6927C29.4144 25.8195 30.0879 24.5004 30.0879 23.027V13.7466H30.9189C31.5159 13.7466 32 13.2626 32 12.6656V8.86456C32 8.26755 31.5159 7.78356 30.9189 7.78356ZM25.3309 25.6218H6.7771C5.34648 25.6218 4.18252 24.4577 4.18252 23.0271V17.081H27.9255V23.0271C27.9257 24.4577 26.7616 25.6218 25.3309 25.6218ZM4.18252 14.9188V6.37804H27.9255V14.9188H4.18252ZM6.7771 2.81042H25.3309C26.3331 2.81042 27.2038 3.38211 27.6358 4.21594H4.47235C4.9044 3.38211 5.77508 2.81042 6.7771 2.81042ZM9.10007 28.5408C9.10007 28.8924 8.80291 29.1895 8.45134 29.1895H6.55935C6.20778 29.1895 5.91063 28.8924 5.91063 28.5408V27.7034C6.19173 27.7554 6.48113 27.7839 6.7771 27.7839H9.10007V28.5408ZM26.1974 28.5408C26.1974 28.8924 25.9004 29.1895 25.5487 29.1895H23.6567C23.3052 29.1895 23.0081 28.8924 23.0081 28.5408V27.784H25.331C25.627 27.784 25.9163 27.7554 26.1974 27.7035V28.5408Z" fill="#C4C4C4"/>
</svg>
