<svg width="81" height="81" viewBox="0 0 81 81" fill="none" xmlns="http://www.w3.org/2000/svg">
<path d="M45.803 3.10064C44.275 1.94866 42.4135 1.32556 40.5 1.32556C38.5865 1.32556 36.725 1.94866 35.197 3.10064L1.74909 29.3801C1.59847 29.4985 1.47669 29.6495 1.39294 29.8219C1.30919 29.9942 1.26566 30.1833 1.26562 30.3749V78.4686C1.26563 78.8043 1.39897 79.1262 1.63632 79.3635C1.87367 79.6009 2.19559 79.7342 2.53125 79.7342H78.4688C78.8044 79.7342 79.1263 79.6009 79.3637 79.3635C79.601 79.1262 79.7344 78.8043 79.7344 78.4686V30.3749C79.7343 30.1833 79.6908 29.9942 79.6071 29.8219C79.5233 29.6495 79.4015 29.4985 79.2509 29.3801L45.803 3.10064ZM34.3174 51.8905L3.79688 75.8652V32.6669L34.3174 51.8905ZM62.0156 39.2342L44.4007 50.33C43.1849 49.7402 41.8512 49.4339 40.5 49.4339C39.1488 49.4339 37.8151 49.7402 36.5993 50.33L18.9844 39.2342V25.3124H62.0156V39.2342ZM36.7601 53.1839C37.8379 52.372 39.1506 51.9329 40.5 51.9329C41.8494 51.9329 43.1621 52.372 44.2399 53.1839L74.8098 77.203H6.19017L36.7601 53.1839ZM46.6826 51.8905L77.2031 32.6669V75.8652L46.6826 51.8905ZM36.7601 5.0902C37.8379 4.27825 39.1506 3.83911 40.5 3.83911C41.8494 3.83911 43.1621 4.27825 44.2399 5.0902L76.2754 30.2609L64.5469 37.6446V24.0467C64.5469 23.7111 64.4135 23.3891 64.1762 23.1518C63.9388 22.9144 63.6169 22.7811 63.2812 22.7811H17.7188C17.3831 22.7811 17.0612 22.9144 16.8238 23.1518C16.5865 23.3891 16.4531 23.7111 16.4531 24.0467V37.6446L4.72458 30.2609L36.7601 5.0902Z" fill="#8BBEF6"/>
<path d="M40.5 48.0938C42.5025 48.0938 44.4601 47.4999 46.1251 46.3874C47.7902 45.2748 49.0879 43.6935 49.8543 41.8434C50.6206 39.9933 50.8211 37.9575 50.4305 35.9935C50.0398 34.0294 49.0755 32.2253 47.6595 30.8093C46.2434 29.3933 44.4393 28.429 42.4753 28.0383C40.5112 27.6476 38.4754 27.8481 36.6253 28.6145C34.7752 29.3808 33.1939 30.6786 32.0814 32.3436C30.9688 34.0087 30.375 35.9662 30.375 37.9688C30.378 40.6531 31.4457 43.2267 33.3439 45.1249C35.242 47.023 37.8156 48.0907 40.5 48.0938ZM40.5 30.375C42.0019 30.375 43.4701 30.8204 44.7189 31.6548C45.9676 32.4892 46.941 33.6752 47.5157 35.0628C48.0905 36.4503 48.2408 37.9772 47.9478 39.4502C47.6548 40.9233 46.9316 42.2763 45.8696 43.3383C44.8076 44.4004 43.4545 45.1236 41.9815 45.4166C40.5084 45.7096 38.9816 45.5592 37.594 44.9845C36.2064 44.4097 35.0204 43.4364 34.186 42.1876C33.3516 40.9388 32.9062 39.4707 32.9062 37.9688C32.9083 35.9554 33.709 34.0251 35.1326 32.6014C36.5563 31.1777 38.4866 30.377 40.5 30.375Z" fill="#8BBEF6"/>
<path d="M39.2346 43.0313C39.5703 43.0312 39.8921 42.8978 40.1294 42.6604L46.4576 36.3323L44.668 34.5427L39.2346 39.9761L37.5982 38.3396L35.8086 40.1292L38.3398 42.6604C38.5771 42.8978 38.899 43.0312 39.2346 43.0313Z" fill="#8BBEF6"/>
</svg>
