<svg width="32" height="32" viewBox="0 0 32 32" fill="none" xmlns="http://www.w3.org/2000/svg">
<path d="M31.6107 2.1145C31.3662 1.93831 31.052 1.89038 30.7661 1.98563C27.4924 3.07681 25.1571 5.88044 24.6185 9.20519C22.2629 6.89638 19.1459 5.6875 16 5.6875C13.6172 5.6875 11.3294 6.35869 9.375 7.60612C9.375 7.12906 9.375 3.35556 9.375 2.875C9.375 2.35725 8.95525 1.9375 8.4375 1.9375C7.91975 1.9375 7.5 2.35725 7.5 2.875V6.625C7.5 7.14194 7.07944 7.5625 6.5625 7.5625H5.625V2.875C5.625 2.35725 5.20525 1.9375 4.6875 1.9375C4.16975 1.9375 3.75 2.35725 3.75 2.875V7.5625H2.8125C2.29556 7.5625 1.875 7.14194 1.875 6.625C1.875 6.17131 1.875 3.33169 1.875 2.875C1.875 2.35725 1.45525 1.9375 0.9375 1.9375C0.41975 1.9375 0 2.35725 0 2.875V8.5C0 9.97975 0.706625 11.3711 1.875 12.25V27.25C1.875 28.8008 3.13669 30.0625 4.6875 30.0625C6.23831 30.0625 7.5 28.8008 7.5 27.25V26.6593C9.83144 28.8838 12.8907 30.0625 16 30.0625C20.1241 30.0625 24.0845 27.9681 26.375 24.3514V27.25C26.375 28.8008 27.6367 30.0625 29.1875 30.0625C30.7383 30.0625 32 28.8008 32 27.25V2.875C32 2.57362 31.8552 2.29069 31.6107 2.1145ZM4.6875 28.1875C4.17056 28.1875 3.75 27.7669 3.75 27.25V11.7483C3.75 11.4137 3.57163 11.1044 3.28194 10.9368C2.65725 10.5754 2.20431 9.98988 1.99875 9.317C2.2565 9.39506 2.52956 9.4375 2.8125 9.4375H6.5625C6.84544 9.4375 7.1185 9.39506 7.37631 9.317C7.17075 9.98988 6.71781 10.5754 6.09312 10.9368C5.80337 11.1044 5.625 11.4137 5.625 11.7483V27.25C5.625 27.7669 5.20444 28.1875 4.6875 28.1875ZM16 28.1875C12.5923 28.1875 9.43606 26.5541 7.5 23.8048V12.25C8.20406 11.7203 8.74013 11.0045 9.05525 10.1955C10.9284 8.51981 13.4466 7.5625 16 7.5625C19.4077 7.5625 22.5639 9.19587 24.5 11.9452V19.75C24.5 20.2677 24.9198 20.6869 25.4375 20.6869H25.9846C24.7394 25.0318 20.6315 28.1875 16 28.1875ZM30.125 27.25C30.125 27.7669 29.7044 28.1875 29.1875 28.1875C28.6706 28.1875 28.25 27.7669 28.25 27.25V19.75C28.25 19.2323 27.8302 18.8125 27.3125 18.8125H26.375C26.375 17.5556 26.375 11.7306 26.375 10.6792C26.375 7.99337 27.8384 5.573 30.125 4.306V27.25Z" fill="#C4C4C4"/>
<path d="M16 11.3125C12.347 11.3125 9.375 14.2564 9.375 17.875C9.375 21.4936 12.347 24.4375 16 24.4375C19.653 24.4375 22.625 21.4936 22.625 17.875C22.625 14.2564 19.653 11.3125 16 11.3125ZM16 22.5625C13.3809 22.5625 11.25 20.4597 11.25 17.875C11.25 15.2903 13.3809 13.1875 16 13.1875C18.6191 13.1875 20.75 15.2903 20.75 17.875C20.75 20.4597 18.6191 22.5625 16 22.5625Z" fill="#C4C4C4"/>
</svg>
