<svg width="32" height="32" viewBox="0 0 32 32" fill="none" xmlns="http://www.w3.org/2000/svg">
<g clip-path="url(#clip0)">
<path d="M31.4628 14.3052L28.7595 11.842V3.67433C28.7595 3.15464 28.3382 2.73327 27.8184 2.73327H21.3112C20.7915 2.73327 20.3702 3.15458 20.3702 3.67433V4.19771L17.1054 1.22289C16.4752 0.648582 15.5249 0.648644 14.895 1.22283L0.53761 14.3053C0.0328596 14.7653 -0.133953 15.474 0.112672 16.1108C0.35936 16.7476 0.959985 17.1591 1.64292 17.1591H3.93598V30.2666C3.93598 30.7863 4.3573 31.2077 4.87705 31.2077H12.7466C13.2663 31.2077 13.6877 30.7864 13.6877 30.2666V22.3081H18.3127V30.2667C18.3127 30.7864 18.734 31.2078 19.2538 31.2078H27.123C27.6427 31.2078 28.0641 30.7865 28.064 30.2667V17.1591H30.3576C31.0405 17.1591 31.6412 16.7476 31.8879 16.1109C32.1344 15.474 31.9677 14.7653 31.4628 14.3052ZM27.123 15.277C26.6034 15.277 26.182 15.6983 26.182 16.2181V29.3256H20.1949V21.3671C20.1949 20.8474 19.7735 20.426 19.2539 20.426H12.7466C12.2269 20.426 11.8055 20.8473 11.8055 21.3671V29.3256H5.81805V16.2181C5.81805 15.6984 5.39673 15.277 4.87698 15.277H2.26555L16.0003 2.76202L20.6775 7.02396C20.953 7.27496 21.3507 7.33964 21.6915 7.18921C22.0324 7.03858 22.2524 6.70096 22.2524 6.32833V4.61539H26.8775V12.2576C26.8775 12.5225 26.989 12.7749 27.1847 12.9533L29.7349 15.277H27.123Z" fill="#C4C4C4"/>
</g>
<defs>
<clipPath id="clip0">
<rect width="32" height="32" fill="white"/>
</clipPath>
</defs>
</svg>
