<svg width="32" height="32" viewBox="0 0 32 32" fill="none" xmlns="http://www.w3.org/2000/svg">
<g clip-path="url(#clip0)">
<path d="M31.7196 15.5893L18.1156 2.21864C16.949 1.07195 15.0509 1.07202 13.8844 2.21858L0.280379 15.5893C-0.0889333 15.9523 -0.0940584 16.5458 0.268879 16.9151C0.631817 17.2843 1.22538 17.2895 1.59463 16.9266L2.65332 15.886V26.5608C2.65332 28.8108 4.48382 30.6413 6.73375 30.6413H25.2663C27.5162 30.6413 29.3467 28.8108 29.3467 26.5608V15.886L30.4054 16.9266C30.5879 17.106 30.8253 17.1955 31.0624 17.1955C31.3051 17.1955 31.5476 17.1018 31.7311 16.9151C32.0941 16.5458 32.0889 15.9523 31.7196 15.5893ZM27.4716 26.5608C27.4716 27.7769 26.4823 28.7663 25.2662 28.7663H6.73375C5.51769 28.7663 4.52832 27.7769 4.52832 26.5608V14.0432L15.1988 3.55583C15.3092 3.44727 15.437 3.36583 15.5734 3.31152C15.9486 3.16227 16.3893 3.21821 16.7153 3.47946C16.7449 3.50321 16.7736 3.52864 16.8013 3.55583L27.4717 14.0431V26.5608H27.4716Z" fill="#C4C4C4"/>
<path d="M13.1829 12.3112V15.3281H10.1658C9.64802 15.3281 9.22827 15.7478 9.22827 16.2656V20.0072C9.22827 20.525 9.64802 20.9447 10.1658 20.9447H13.1829V23.9616C13.1829 24.4794 13.6026 24.8991 14.1204 24.8991H17.862C18.3798 24.8991 18.7995 24.4794 18.7995 23.9616V20.9447H21.8161C22.3339 20.9447 22.7536 20.525 22.7536 20.0072V16.2656C22.7536 15.7478 22.3339 15.3281 21.8161 15.3281H18.7995V12.3112C18.7995 11.7934 18.3798 11.3737 17.862 11.3737H14.1204C13.6026 11.3737 13.1829 11.7934 13.1829 12.3112ZM15.0579 16.2656V13.2487H16.9245V16.2656C16.9245 16.7833 17.3443 17.2031 17.862 17.2031H20.8786V19.0697H17.862C17.3443 19.0697 16.9245 19.4895 16.9245 20.0072V23.0241H15.0579V20.0072C15.0579 19.4895 14.6381 19.0697 14.1204 19.0697H11.1033V17.2031H14.1204C14.6381 17.2031 15.0579 16.7833 15.0579 16.2656Z" fill="#C4C4C4"/>
</g>
<defs>
<clipPath id="clip0">
<rect width="32" height="32" fill="white"/>
</clipPath>
</defs>
</svg>
