<svg width="39" height="39" viewBox="0 0 39 39" fill="none" xmlns="http://www.w3.org/2000/svg">
<g clip-path="url(#clip0)">
<path d="M36.0663 10.5816L36.0651 10.5512C36.0481 10.1766 36.0368 9.78028 36.03 9.33931C35.9981 7.18895 34.2887 5.41022 32.1381 5.29002C27.6541 5.03978 24.1853 3.57764 21.2214 0.68877L21.1961 0.664669C20.2294 -0.221719 18.7711 -0.221719 17.8041 0.664669L17.7788 0.68877C14.815 3.57764 11.3462 5.03978 6.86216 5.29031C4.7118 5.41022 3.00211 7.18895 2.97027 9.33961C2.96372 9.7776 2.95212 10.1739 2.93516 10.5512L2.93337 10.6217C2.84619 15.1941 2.73789 20.8847 4.64158 26.0498C5.68835 28.8901 7.27367 31.3592 9.35322 33.3887C11.7217 35.7001 14.8239 37.535 18.5736 38.8424C18.6955 38.885 18.8223 38.9195 18.9514 38.9454C19.1335 38.9817 19.3168 38.9998 19.5001 38.9998C19.6834 38.9998 19.867 38.9817 20.0488 38.9454C20.1779 38.9195 20.3056 38.8847 20.4282 38.8419C24.1734 37.5321 27.2723 35.6962 29.6387 33.3852C31.7173 31.355 33.3027 28.8854 34.3503 26.0444C36.2612 20.8638 36.1531 15.1626 36.0663 10.5816ZM32.2032 25.2526C30.1954 30.6965 26.0967 34.4352 19.673 36.6817C19.6501 36.6894 19.6257 36.6962 19.6004 36.7013C19.534 36.7144 19.4665 36.7144 19.3992 36.701C19.3743 36.6959 19.3499 36.6894 19.3272 36.6817C12.8967 34.4394 8.79532 30.7028 6.78897 25.2586C5.03434 20.4976 5.13372 15.2739 5.2215 10.6655L5.22209 10.6399C5.23995 10.2439 5.25185 9.82907 5.25839 9.37323C5.27268 8.41841 6.0332 7.62843 6.98981 7.57516C9.52728 7.43353 11.7565 6.94318 13.8048 6.07613C15.8504 5.21027 17.6672 3.98974 19.3585 2.34491C19.4445 2.27231 19.5561 2.27201 19.6417 2.34491C21.3333 3.98974 23.1501 5.21027 25.1954 6.07613C27.2437 6.94318 29.4729 7.43353 32.0107 7.57516C32.9673 7.62843 33.7278 8.41841 33.7418 9.37353C33.7487 9.83175 33.7606 10.2465 33.7784 10.6399C33.8659 15.2536 33.9629 20.4815 32.2032 25.2526Z" fill="#265ED7"/>
<path d="M19.4994 9.78125C14.14 9.78125 9.78003 14.1415 9.78003 19.5006C9.78003 24.86 14.14 29.2203 19.4994 29.2203C24.8585 29.2203 29.2187 24.86 29.2187 19.5006C29.2187 14.1415 24.8585 9.78125 19.4994 9.78125ZM19.4994 26.9315C15.4019 26.9315 12.0685 23.5981 12.0685 19.5006C12.0685 15.4031 15.4019 12.0697 19.4994 12.0697C23.5966 12.0697 26.93 15.4031 26.93 19.5006C26.93 23.5981 23.5966 26.9315 19.4994 26.9315Z" fill="#265ED7"/>
<path d="M22.2928 16.4831L17.7784 20.9975L16.5531 19.7722C16.1062 19.3253 15.3817 19.3253 14.9348 19.7722C14.4881 20.2191 14.4881 20.9436 14.9348 21.3902L16.9694 23.4249C17.1928 23.6483 17.4856 23.7599 17.7784 23.7599C18.0712 23.7599 18.364 23.6483 18.5874 23.4249L23.9111 18.1012C24.3578 17.6543 24.3578 16.9297 23.9111 16.4831C23.4642 16.0359 22.7397 16.0359 22.2928 16.4831Z" fill="#265ED7"/>
</g>
<defs>
<clipPath id="clip0">
<rect width="39" height="39" fill="white"/>
</clipPath>
</defs>
</svg>
