<svg width="39" height="39" viewBox="0 0 39 39" fill="none" xmlns="http://www.w3.org/2000/svg">
<path d="M19.5 32.6031C20.131 32.6031 20.6426 32.0916 20.6426 31.4606C20.6426 30.8295 20.131 30.318 19.5 30.318C18.869 30.318 18.3574 30.8295 18.3574 31.4606C18.3574 32.0916 18.869 32.6031 19.5 32.6031Z" fill="#265ED7"/>
<path d="M19.5 8.68201C20.131 8.68201 20.6426 8.17046 20.6426 7.53943C20.6426 6.9084 20.131 6.39685 19.5 6.39685C18.869 6.39685 18.3574 6.9084 18.3574 7.53943C18.3574 8.17046 18.869 8.68201 19.5 8.68201Z" fill="#265ED7"/>
<path d="M32.1268 20.4128C32.6386 20.0436 32.7542 19.3295 32.3851 18.8177C32.0159 18.306 31.3018 18.1903 30.79 18.5595C30.2783 18.9286 30.1627 19.6428 30.5318 20.1545C30.901 20.6663 31.6151 20.7819 32.1268 20.4128Z" fill="#265ED7"/>
<path d="M8.59981 19.9428C8.8415 19.3598 8.56475 18.6912 7.98168 18.4495C7.39861 18.2078 6.73001 18.4845 6.48833 19.0676C6.24664 19.6507 6.52339 20.3193 7.10646 20.561C7.68953 20.8026 8.35813 20.5259 8.59981 19.9428Z" fill="#265ED7"/>
<path d="M28.4965 28.9776C29.0518 28.6778 29.259 27.9847 28.9592 27.4294C28.6595 26.8741 27.9664 26.6669 27.411 26.9666C26.8557 27.2664 26.6486 27.9595 26.9483 28.5148C27.248 29.0701 27.9412 29.2773 28.4965 28.9776Z" fill="#265ED7"/>
<path d="M11.0428 12.1851C11.6738 12.1851 12.1854 11.6736 12.1854 11.0425C12.1854 10.4115 11.6738 9.89996 11.0428 9.89996C10.4118 9.89996 9.90021 10.4115 9.90021 11.0425C9.90021 11.6736 10.4118 12.1851 11.0428 12.1851Z" fill="#265ED7"/>
<path d="M27.1497 10.2347C26.7035 10.6809 26.7035 11.4043 27.1497 11.8505C27.5959 12.2967 28.3193 12.2967 28.7656 11.8505C29.2118 11.4043 29.2118 10.6809 28.7656 10.2347C28.3194 9.78847 27.5959 9.78847 27.1497 10.2347Z" fill="#265ED7"/>
<path d="M11.9325 28.6508C12.3206 28.1536 12.2321 27.4359 11.7348 27.0478C11.2376 26.6597 10.5198 26.7482 10.1318 27.2455C9.74368 27.7427 9.83218 28.4604 10.3294 28.8485C10.8267 29.2366 11.5444 29.1481 11.9325 28.6508Z" fill="#265ED7"/>
<path d="M33.2886 5.71137C29.6055 2.02838 24.7086 0 19.5 0C14.2914 0 9.39451 2.02838 5.71137 5.71137C2.02838 9.39451 0 14.2914 0 19.5C0 24.7086 2.02838 29.6055 5.71137 33.2886C9.39451 36.9716 14.2914 39 19.5 39C24.7086 39 29.6055 36.9716 33.2886 33.2886C36.9716 29.6055 39 24.7086 39 19.5C39 14.2914 36.9716 9.39451 33.2886 5.71137ZM19.5 36.7148C10.0077 36.7148 2.28516 28.9923 2.28516 19.5C2.28516 10.0077 10.0077 2.28516 19.5 2.28516C28.9923 2.28516 36.7148 10.0077 36.7148 19.5C36.7148 28.9923 28.9923 36.7148 19.5 36.7148Z" fill="#265ED7"/>
<path d="M23.9099 13.4743L19.5 17.8841L17.0801 15.4643C16.6339 15.0181 15.9105 15.0181 15.4642 15.4643C15.018 15.9105 15.018 16.6339 15.4642 17.0801L18.692 20.3079C19.1382 20.7541 19.8616 20.7542 20.3078 20.3079L25.5256 15.0901C25.9718 14.6439 25.9718 13.9205 25.5256 13.4743C25.0795 13.028 24.356 13.028 23.9099 13.4743Z" fill="#265ED7"/>
</svg>
