<svg width="34" height="34" viewBox="0 0 34 34" fill="none" xmlns="http://www.w3.org/2000/svg">
<path d="M21.0508 3.98438C16.1076 3.98438 12.0859 8.006 12.0859 12.9492C12.0859 17.8924 16.1076 21.9141 21.0508 21.9141C25.994 21.9141 30.0156 17.8924 30.0156 12.9492C30.0156 8.006 25.994 3.98438 21.0508 3.98438ZM21.0508 19.9219C17.2061 19.9219 14.0781 16.7939 14.0781 12.9492C14.0781 9.1045 17.2061 5.97656 21.0508 5.97656C24.8955 5.97656 28.0234 9.1045 28.0234 12.9492C28.0234 16.7939 24.8955 19.9219 21.0508 19.9219Z" fill="#265ED7"/>
<path d="M23.3348 10.2526L20.0547 13.5327L18.7668 12.2449C18.3779 11.8559 17.7471 11.8559 17.3581 12.2449C16.9691 12.6339 16.9691 13.2646 17.3581 13.6536L19.3503 15.6458C19.7393 16.0347 20.37 16.0348 20.759 15.6458L24.7434 11.6614C25.1324 11.2724 25.1324 10.6417 24.7434 10.2527C24.3544 9.86369 23.7237 9.86369 23.3348 10.2526Z" fill="#265ED7"/>
<path d="M21.0508 0C13.9106 0 8.10156 5.80902 8.10156 12.9492C8.10156 15.3606 8.76848 17.6901 10.0378 19.7365L0.87623 28.898C0.31118 29.4627 0 30.2134 0 31.0117C0 32.6595 1.34054 34 2.98828 34C3.78662 34 4.53734 33.6888 5.10179 33.124L14.2635 23.9622C16.3099 25.2315 18.6394 25.8984 21.0508 25.8984C28.191 25.8984 34 20.0894 34 12.9492C34 5.80902 28.191 0 21.0508 0V0ZM21.0508 23.9062C18.7743 23.9062 16.583 23.2021 14.7138 21.8701C14.3177 21.5878 13.7754 21.6329 13.4314 21.9769L3.69285 31.7155C3.50446 31.904 3.25424 32.0078 2.98828 32.0078C2.43904 32.0078 1.99219 31.561 1.99219 31.0117C1.99219 30.7457 2.09598 30.4955 2.28471 30.3069L12.0231 20.5685C12.3671 20.2245 12.4123 19.6823 12.1299 19.2861C10.7979 17.417 10.0938 15.2257 10.0938 12.9492C10.0938 6.90751 15.0091 1.99219 21.0508 1.99219C27.0925 1.99219 32.0078 6.90751 32.0078 12.9492C32.0078 18.9909 27.0925 23.9062 21.0508 23.9062Z" fill="#265ED7"/>
</svg>
