<svg width="37" height="37" viewBox="0 0 37 37" fill="none" xmlns="http://www.w3.org/2000/svg">
<g clip-path="url(#clip0)">
<path d="M35.916 17.416H31.9568L34.4423 14.9305C34.8656 14.5072 34.8656 13.8209 34.4423 13.3975C34.019 12.9742 33.3327 12.9742 32.9093 13.3975L28.8909 17.416H21.5655C21.5271 17.3076 21.4834 17.2016 21.4341 17.0988L26.6139 11.9191H32.2969C32.8955 11.9191 33.3809 11.4337 33.3809 10.8351C33.3809 10.2364 32.8955 9.75109 32.2969 9.75109H28.7819L31.5304 7.00261C31.9537 6.57935 31.9537 5.89297 31.5304 5.46964C31.1072 5.04638 30.4208 5.04631 29.9974 5.46964L27.2489 8.21812V4.70312C27.2489 4.10447 26.7636 3.61913 26.1649 3.61913C25.5663 3.61913 25.0809 4.10447 25.0809 4.70312V10.3861L19.9012 15.5659C19.7983 15.5166 19.6924 15.473 19.584 15.4346V8.10914L23.6024 4.09074C24.0257 3.66741 24.0257 2.9811 23.6024 2.55777C23.1791 2.13444 22.4927 2.13444 22.0694 2.55777L19.584 5.0432V1.08398C19.584 0.485336 19.0986 0 18.5 0C17.9014 0 17.416 0.485336 17.416 1.08398V5.0432L14.9305 2.55777C14.5073 2.13444 13.8209 2.13444 13.3975 2.55777C12.9742 2.9811 12.9742 3.66741 13.3975 4.09074L17.416 8.10914V15.4345C17.3076 15.4729 17.2016 15.5165 17.0988 15.5658L11.9191 10.386V4.70305C11.9191 4.1044 11.4337 3.61906 10.8351 3.61906C10.2364 3.61906 9.75109 4.1044 9.75109 4.70305V8.21805L7.00254 5.46964C6.57928 5.04631 5.8929 5.04631 5.46957 5.46964C5.04624 5.89297 5.04624 6.57928 5.46957 7.00261L8.21805 9.75109H4.70305C4.1044 9.75109 3.61906 10.2364 3.61906 10.8351C3.61906 11.4337 4.1044 11.9191 4.70305 11.9191H10.386L15.5658 17.0988C15.5165 17.2016 15.4729 17.3075 15.4344 17.416H8.10914L4.09074 13.3976C3.66748 12.9743 2.9811 12.9743 2.55777 13.3976C2.13444 13.8209 2.13444 14.5073 2.55777 14.9306L5.0432 17.416H1.08398C0.485336 17.416 0 17.9014 0 18.5C0 19.0986 0.485336 19.584 1.08398 19.584H5.0432L2.5577 22.0695C2.13437 22.4928 2.13437 23.1791 2.5577 23.6025C2.98096 24.0258 3.66734 24.0259 4.09067 23.6025L8.10914 19.584H15.4345C15.4729 19.6924 15.5166 19.7984 15.5659 19.9012L10.3861 25.0809H4.70312C4.10447 25.0809 3.61913 25.5663 3.61913 26.1649C3.61913 26.7636 4.10447 27.2489 4.70312 27.2489H8.21812L5.46964 29.9974C5.04631 30.4206 5.04631 31.107 5.46964 31.5304C5.8929 31.9537 6.57928 31.9537 7.00261 31.5304L9.75109 28.7819V32.2969C9.75109 32.8955 10.2364 33.3809 10.8351 33.3809C11.4337 33.3809 11.9191 32.8955 11.9191 32.2969V26.6139L17.0988 21.4341C17.2017 21.4834 17.3076 21.527 17.416 21.5654V28.8908L13.3976 32.9092C12.9743 33.3325 12.9743 34.0188 13.3976 34.4422C13.8209 34.8655 14.5073 34.8655 14.9306 34.4422L17.416 31.9568V35.916C17.416 36.5147 17.9014 37 18.5 37C19.0986 37 19.584 36.5147 19.584 35.916V31.9568L22.0695 34.4422C22.4927 34.8656 23.1791 34.8656 23.6025 34.4422C24.0258 34.0189 24.0258 33.3326 23.6025 32.9093L19.584 28.8909V21.5655C19.6924 21.5271 19.7984 21.4835 19.9012 21.4342L25.0809 26.614V32.297C25.0809 32.8956 25.5663 33.3809 26.1649 33.3809C26.7636 33.3809 27.2489 32.8956 27.2489 32.297V28.782L29.9974 31.5304C30.4206 31.9538 31.107 31.9538 31.5304 31.5304C31.9537 31.1071 31.9537 30.4208 31.5304 29.9975L28.7819 27.249H32.2969C32.8955 27.249 33.3809 26.7636 33.3809 26.165C33.3809 25.5663 32.8955 25.081 32.2969 25.081H26.6139L21.4341 19.9013C21.4834 19.7985 21.5271 19.6925 21.5655 19.5841H28.8909L32.9093 23.6025C33.3325 24.0258 34.0189 24.0259 34.4422 23.6025C34.8656 23.1791 34.8656 22.4928 34.4422 22.0695L31.9568 19.584H35.916C36.5147 19.584 37 19.0986 37 18.5C37 17.9014 36.5147 17.416 35.916 17.416ZM17.416 18.5C17.416 17.9023 17.9023 17.416 18.5 17.416C19.0977 17.416 19.584 17.9023 19.584 18.5C19.584 19.0977 19.0977 19.584 18.5 19.584C17.9023 19.584 17.416 19.0977 17.416 18.5Z" fill="#265ED7"/>
</g>
<defs>
<clipPath id="clip0">
<rect width="37" height="37" fill="white"/>
</clipPath>
</defs>
</svg>
