<svg width="39" height="39" viewBox="0 0 39 39" fill="none" xmlns="http://www.w3.org/2000/svg">
<path d="M17.678 2.4375C16.1976 2.4375 15.0274 3.47353 14.6016 4.827C14.0951 4.46079 13.4817 4.24305 12.803 4.24305C10.9297 4.24305 9.553 5.90203 9.553 7.76389V20.9258L6.40151 17.2731L6.39015 17.2604C5.11549 15.8441 3.00981 15.8441 1.73514 17.2604C0.512015 18.6194 0.505187 20.7867 1.71467 22.1548L5.65515 27.2127L7.95655 30.3414C9.79376 33.5238 12.7502 35.6956 16.0933 36.3535C16.5335 36.4403 16.9608 36.1535 17.0474 35.7133C17.134 35.2731 16.8473 34.8459 16.4071 34.7592C13.5461 34.196 10.9624 32.32 9.34317 29.4928C9.32779 29.466 9.31091 29.4401 9.2926 29.4151L6.95772 26.2407L2.98002 21.1347C2.96821 21.1196 2.95586 21.1048 2.94301 21.0905C2.2692 20.3419 2.2692 19.0962 2.94301 18.3476C3.57042 17.6504 4.54778 17.6485 5.17712 18.3417L9.75034 23.642C9.97216 23.899 10.3304 23.991 10.6486 23.8727C10.9669 23.7544 11.178 23.4507 11.178 23.1111V7.76389C11.178 6.63421 11.9839 5.86805 12.803 5.86805C13.6221 5.86805 14.428 6.63421 14.428 7.76389V18.5971C14.428 19.046 14.7918 19.4096 15.2405 19.4096C15.6892 19.4096 16.053 19.046 16.053 18.5971V5.95834C16.053 4.82866 16.8589 4.0625 17.678 4.0625C18.497 4.0625 19.303 4.82866 19.303 5.95834V16.7916C19.303 17.2404 19.6667 17.6041 20.1155 17.6041C20.5642 17.6041 20.928 17.2404 20.928 16.7916V7.76389C20.928 6.63421 21.7339 5.86805 22.553 5.86805C23.372 5.86805 24.178 6.63421 24.178 7.76389V14.625C24.178 15.0737 24.5417 15.4375 24.9905 15.4375C25.4392 15.4375 25.803 15.0737 25.803 14.625V11.375C25.803 10.2453 26.6089 9.47916 27.428 9.47916C28.247 9.47916 29.053 10.2453 29.053 11.375V16.25C29.053 16.6987 29.4167 17.0625 29.8655 17.0625C30.3142 17.0625 30.678 16.6987 30.678 16.25V11.375C30.678 9.51314 29.3013 7.85416 27.428 7.85416C26.8252 7.85416 26.2736 8.02599 25.803 8.32111V7.76389C25.803 5.90203 24.4263 4.24305 22.553 4.24305C21.8743 4.24305 21.2608 4.46079 20.7545 4.827C20.3287 3.47353 19.1584 2.4375 17.678 2.4375Z" fill="#265ED7"/>
<path d="M28.4376 25.1875C28.8863 25.1875 29.2501 25.5513 29.2501 26V29.25C29.2501 29.6987 28.8863 30.0625 28.4376 30.0625C27.989 30.0625 27.6251 29.6987 27.6251 29.25V26C27.6251 25.5513 27.989 25.1875 28.4376 25.1875Z" fill="#265ED7"/>
<path d="M29.2501 32.5C29.2501 32.0513 28.8863 31.6875 28.4376 31.6875C27.989 31.6875 27.6251 32.0513 27.6251 32.5V33.3125C27.6251 33.7612 27.989 34.125 28.4376 34.125C28.8863 34.125 29.2501 33.7612 29.2501 33.3125V32.5Z" fill="#265ED7"/>
<path fill-rule="evenodd" clip-rule="evenodd" d="M30.6178 21.2311C29.7195 19.4345 27.1557 19.4345 26.2574 21.2311L19.9493 33.8474C19.139 35.4681 20.3176 37.375 22.1294 37.375H34.7459C36.5578 37.375 37.7364 35.4681 36.926 33.8474L30.6178 21.2311ZM27.711 21.9578C28.0103 21.359 28.8649 21.359 29.1644 21.9578L35.4726 34.5741C35.7427 35.1145 35.3498 35.75 34.7459 35.75H22.1294C21.5254 35.75 21.1327 35.1145 21.4027 34.5741L27.711 21.9578Z" fill="#265ED7"/>
</svg>
