<svg width="39" height="39" viewBox="0 0 39 39" fill="none" xmlns="http://www.w3.org/2000/svg">
<path d="M39.0001 9.11567C38.6539 -2.18217 22.8284 -3.29788 20.8248 7.72888C10.7696 4.37856 -0.171798 12.3572 0.00216995 22.9785C0.00201762 31.7982 7.17742 38.9736 15.9973 38.9736C26.6169 39.147 34.5992 28.206 31.2468 18.1507C35.631 17.4807 39.0001 13.6842 39.0001 9.11567ZM15.9973 37.4502C8.01748 37.4502 1.52538 30.9582 1.52538 22.9783C1.39681 13.194 11.523 5.9825 20.7218 9.29931C20.7333 9.874 20.7985 10.4435 20.9155 11.0007C17.3542 9.51457 13.1182 9.75442 9.75183 11.6338C9.38348 11.8369 9.24958 12.3003 9.45279 12.6686C9.65593 13.037 10.1193 13.1709 10.4876 12.9676C13.8696 11.072 18.2223 11.0909 21.5929 13.0172C21.6861 13.2147 21.7867 13.409 21.8943 13.5999C21.6804 14.397 21.4665 15.1943 21.2526 15.9929C20.9596 17.0352 21.9615 18.0143 22.9956 17.7191C23.7889 17.5066 24.582 17.2938 25.3752 17.081C25.5662 17.1888 25.7608 17.2893 25.9585 17.3827C30.254 24.8705 24.6357 34.4768 15.9972 34.4034C7.4022 34.4782 1.77803 24.9499 5.98677 17.4683C6.18998 17.1 6.05623 16.6367 5.68788 16.4334C5.31946 16.2302 4.8562 16.364 4.65299 16.7323C-0.11749 25.2137 6.25473 36.011 15.9974 35.9268C25.0812 36.0271 31.5216 26.4173 27.9749 18.0601C28.532 18.1772 29.1015 18.2424 29.6762 18.2539C32.993 27.4537 25.7814 37.5787 15.9973 37.4502ZM29.86 16.7324C28.4526 16.7324 27.0778 16.3455 25.8842 15.6134C25.7057 15.5038 25.4896 15.473 25.2887 15.527L25.0396 15.5938C24.2844 15.7964 23.5291 15.9991 22.7738 16.2015C22.9986 15.3627 23.2234 14.5247 23.4483 13.6865C23.5025 13.4846 23.4713 13.2692 23.3619 13.091C20.2482 8.10782 23.9767 1.44746 29.8601 1.49887C39.9642 1.91696 39.9622 16.3155 29.86 16.7324Z" fill="#265ED7"/>
<path d="M34.4301 7.97311H34.4296C34.0972 7.97311 33.798 8.11509 33.5893 8.34169C33.4904 7.86442 33.3019 7.4196 33.0423 7.02558C34.0685 7.07471 34.6361 5.81002 33.8994 5.07614C33.4533 4.62995 32.7299 4.62995 32.2837 5.07614L32.2833 5.07652C32.0478 5.31203 31.9367 5.6247 31.9498 5.93311C31.5558 5.67352 31.111 5.48509 30.6337 5.38622C31.392 4.6953 30.8996 3.40105 29.86 3.40296C29.2291 3.40296 28.7175 3.9145 28.7175 4.54548V4.54601C28.7175 4.87841 28.8595 5.17759 29.0861 5.38629C28.6088 5.48516 28.164 5.67368 27.77 5.93326C27.7825 5.64283 27.6848 5.34753 27.4738 5.11544C27.0494 4.64846 26.3267 4.6141 25.8599 5.03859C25.393 5.46307 25.3586 6.1856 25.7831 6.65251L25.7834 6.65289C26.0211 6.91362 26.3486 7.03929 26.6776 7.02573C26.418 7.41975 26.2296 7.86457 26.1307 8.34184C25.4398 7.58359 24.1455 8.07602 24.1474 9.11556C24.1474 9.74653 24.659 10.2581 25.29 10.2581H25.2905C25.6229 10.2581 25.9221 10.1161 26.1308 9.8895C26.2296 10.3668 26.4182 10.8116 26.6777 11.2055C26.3692 11.1924 26.0563 11.3036 25.8207 11.5391C25.3745 11.9853 25.3745 12.7087 25.8207 13.1549C26.2668 13.6011 26.9903 13.6011 27.4364 13.1549L27.4368 13.1545C27.6723 12.919 27.7835 12.6063 27.7703 12.2979C28.1643 12.5575 28.6091 12.746 29.0864 12.8448C28.3281 13.5357 28.8206 14.83 29.8602 14.8281C30.4912 14.8281 31.0027 14.3165 31.0027 13.6856V13.685C31.0027 13.3526 30.8607 13.0535 30.6341 12.8448C31.1113 12.7459 31.5561 12.5575 31.9501 12.2979C31.9364 12.6247 32.0622 12.9552 32.3231 13.1924C32.7888 13.616 33.5116 13.5835 33.9371 13.1156C34.3616 12.6488 34.3271 11.9262 33.8602 11.5017L33.8598 11.5013C33.6279 11.2904 33.3328 11.1928 33.0426 11.2053C33.3022 10.8113 33.4906 10.3665 33.5895 9.88927C34.2804 10.6475 35.5747 10.1551 35.5728 9.11556C35.5726 8.48466 35.0611 7.97311 34.4301 7.97311ZM29.86 11.4007C28.6001 11.4007 27.575 10.3756 27.575 9.11563C27.7005 6.08422 32.0199 6.08506 32.1451 9.11563C32.145 10.3756 31.1199 11.4007 29.86 11.4007Z" fill="#265ED7"/>
<path d="M15.979 28.0815H16.0102C17.0973 28.0815 18.1312 27.6478 18.9227 26.8593C21.0978 24.6497 20.0704 21.834 18.625 19.938C16.4906 17.21 15.5015 17.2142 13.3698 19.938C11.9237 21.834 10.8979 24.652 13.0721 26.8593C13.8638 27.6479 14.8975 28.0815 15.979 28.0815ZM15.9975 19.4235C16.6857 19.7782 18.6633 22.1136 18.6633 23.8457C18.6633 24.5586 18.3661 25.2636 17.8477 25.78C17.3414 26.2844 16.6853 26.5608 15.9946 26.5581C15.3097 26.5607 14.6537 26.2843 14.1473 25.7799C13.6289 25.2635 13.3317 24.5585 13.3317 23.8457C13.3316 22.1136 15.3091 19.7782 15.9975 19.4235Z" fill="#265ED7"/>
<path d="M6.86779 14.9243C7.17818 15.2068 7.66024 15.1848 7.94389 14.8729C8.22686 14.5617 8.20393 14.0799 7.89263 13.797C7.58133 13.514 7.09965 13.5369 6.81668 13.8482L6.8163 13.8486C6.53341 14.1599 6.55657 14.6414 6.86779 14.9243Z" fill="#265ED7"/>
</svg>
