<svg width="39" height="39" viewBox="0 0 39 39" fill="none" xmlns="http://www.w3.org/2000/svg">
<g clip-path="url(#clip0)">
<path d="M37.8574 2.36133H33.2109C32.8774 2.36133 32.5605 2.50712 32.3434 2.76032L29.7629 5.77086C26.8163 3.55852 23.2503 2.36133 19.5 2.36133C10.028 2.36133 2.36133 10.0267 2.36133 19.5C2.36133 24.1179 4.17582 28.4766 7.50445 31.7392L5.26355 34.3535H1.14258C0.51157 34.3535 0 34.8651 0 35.4961C0 36.1271 0.51157 36.6387 1.14258 36.6387H5.78906C6.12262 36.6387 6.43949 36.4929 6.65658 36.2397L9.23706 33.2291C12.1837 35.4415 15.7497 36.6387 19.5 36.6387C28.972 36.6387 36.6387 28.9733 36.6387 19.5C36.6387 14.9068 34.843 10.5437 31.4956 7.26078L33.7364 4.64648H37.8574C38.4884 4.64648 39 4.13491 39 3.50391C39 2.8729 38.4884 2.36133 37.8574 2.36133ZM19.5 34.3535C14.216 34.3535 9.56825 31.5796 6.93469 27.4119C8.52333 27.1672 9.64496 26.4427 10.3594 25.7968C11.2347 26.5882 12.7214 27.498 14.9297 27.498C17.1391 27.498 18.6248 26.5876 19.5 25.7958C20.3752 26.5876 21.8609 27.498 24.0703 27.498C26.2786 27.498 27.7653 26.5882 28.6406 25.7968C29.355 26.4427 30.4767 27.1672 32.0653 27.4119C29.4317 31.5796 24.784 34.3535 19.5 34.3535ZM34.3535 19.5C34.3535 21.5234 33.9462 23.4533 33.2103 25.2129C30.7715 25.2126 29.7021 23.6107 29.6213 23.4837C29.4182 23.127 29.0514 22.9066 28.6406 22.9066C28.2298 22.9066 27.8631 23.127 27.66 23.4837C27.5792 23.6106 26.5096 25.2129 24.0703 25.2129C21.5844 25.2129 20.5211 23.5488 20.4771 23.478L20.4833 23.4883L19.5 24.0703L18.5168 23.4883L18.523 23.478C18.4789 23.5488 17.4156 25.2129 14.9297 25.2129C12.4904 25.2129 11.4208 23.6106 11.34 23.4836C11.1369 23.1269 10.7702 22.9065 10.3594 22.9065C9.94858 22.9065 9.58181 23.1269 9.37874 23.4836C9.29792 23.6106 8.22854 25.2126 5.78967 25.2128C5.05378 23.4533 4.64648 21.5234 4.64648 19.5C4.64648 11.3098 11.3098 4.64648 19.5 4.64648C27.6902 4.64648 34.3535 11.3098 34.3535 19.5Z" fill="#265ED7"/>
<path d="M11.2995 11.9952C11.0861 11.6863 10.7348 11.502 10.3594 11.502C9.984 11.502 9.63262 11.6863 9.41926 11.9952C9.39489 12.0304 8.8156 12.8709 8.22847 13.8831C7.06608 15.8869 6.93164 16.7443 6.93164 17.2148C6.93164 19.1049 8.46932 20.6426 10.3594 20.6426C12.2494 20.6426 13.7871 19.1049 13.7871 17.2148C13.7871 16.7443 13.6527 15.8869 12.4903 13.8831C11.9032 12.8709 11.3239 12.0304 11.2995 11.9952ZM10.3594 18.3574C9.72936 18.3574 9.2168 17.8449 9.2168 17.2162C9.22609 16.867 9.70133 15.8713 10.3594 14.7626C11.0171 15.8709 11.4922 16.8661 11.502 17.2158C11.5015 17.8453 10.9891 18.3574 10.3594 18.3574Z" fill="#265ED7"/>
<path d="M28.6406 11.502C28.2652 11.502 27.9139 11.6863 27.7005 11.9952C27.6761 12.0304 27.0968 12.8709 26.5097 13.8831C25.3473 15.8869 25.2129 16.7443 25.2129 17.2148C25.2129 19.1049 26.7506 20.6426 28.6406 20.6426C30.5307 20.6426 32.0684 19.1049 32.0684 17.2148C32.0684 16.7443 31.9339 15.8869 30.7715 13.8831C30.1844 12.8709 29.6051 12.0304 29.5807 11.9952C29.3674 11.6863 29.016 11.502 28.6406 11.502ZM28.6406 18.3574C28.0106 18.3574 27.498 17.8449 27.498 17.2162C27.5073 16.867 27.9826 15.8713 28.6406 14.7626C29.2984 15.8709 29.7735 16.8661 29.7832 17.2158C29.7827 17.8453 29.2703 18.3574 28.6406 18.3574Z" fill="#265ED7"/>
<path d="M20.4401 7.42485C20.2268 7.11598 19.8754 6.93164 19.5 6.93164C19.1246 6.93164 18.7732 7.11598 18.5599 7.42485C18.5355 7.46012 17.9562 8.3006 17.3691 9.31277C16.2067 11.3166 16.0723 12.1739 16.0723 12.6445C16.0723 14.5346 17.6099 16.0723 19.5 16.0723C21.3901 16.0723 22.9277 14.5346 22.9277 12.6445C22.9277 12.1739 22.7933 11.3166 21.6309 9.31277C21.0438 8.3006 20.4645 7.46012 20.4401 7.42485ZM19.5 13.7871C18.87 13.7871 18.3574 13.2745 18.3574 12.6459C18.3667 12.2967 18.842 11.301 19.5 10.1923C20.1577 11.3006 20.6328 12.2958 20.6426 12.6455C20.6421 13.275 20.1297 13.7871 19.5 13.7871Z" fill="#265ED7"/>
</g>
<defs>
<clipPath id="clip0">
<rect width="39" height="39" fill="white"/>
</clipPath>
</defs>
</svg>
