<svg width="32" height="32" viewBox="0 0 32 32" fill="none" xmlns="http://www.w3.org/2000/svg">
<path d="M31.0588 30.1176H23.4667V26.3322C24.2685 27.164 24.8688 27.7077 24.9068 27.7419C25.2649 28.0651 25.8096 28.0652 26.1678 27.7419C28.1646 25.9404 32 21.8679 32 19.0118C32 14.5838 27.6337 11.4761 23.4667 12.8892V4.95686C23.4667 4.43708 23.0453 4.01569 22.5255 4.01569H19.702V0.941177C19.702 0.421396 19.2806 0 18.7608 0H10.7294C10.2096 0 9.78824 0.421396 9.78824 0.941177V4.01569H6.96471C6.44493 4.01569 6.02353 4.43708 6.02353 4.95686V14.0549H0.941177C0.421396 14.0549 0 14.4763 0 14.9961V31.0588C0 31.5786 0.421396 32 0.941177 32H31.0588C31.5786 32 32 31.5786 32 31.0588C32 30.539 31.5786 30.1176 31.0588 30.1176ZM6.02353 18.0706H4.95686C4.43708 18.0706 4.01569 18.492 4.01569 19.0118C4.01569 19.5315 4.43708 19.9529 4.95686 19.9529H6.02353V22.0863H4.95686C4.43708 22.0863 4.01569 22.5077 4.01569 23.0275C4.01569 23.5472 4.43708 23.9686 4.95686 23.9686H6.02353V26.102H4.95686C4.43708 26.102 4.01569 26.5234 4.01569 27.0431C4.01569 27.5629 4.43708 27.9843 4.95686 27.9843H6.02353V30.1176H1.88235V15.9373H6.02353V18.0706ZM11.6706 1.88235H17.8196V4.01569H11.6706V1.88235ZM21.5843 30.1176H7.90588C7.90588 29.1332 7.90588 6.88835 7.90588 5.89804H21.5843V13.9026C20.0585 15.0858 19.0745 16.936 19.0745 19.0118C19.0745 20.3811 19.9187 22.126 21.5843 24.2045V30.1176ZM20.9569 19.0118C20.9569 16.4862 23.0116 14.4314 25.5373 14.4314C28.0629 14.4314 30.1176 16.4862 30.1176 19.0118C30.1176 20.7352 27.5243 23.827 25.5373 25.7534C24.1318 24.3907 20.9569 20.9441 20.9569 19.0118Z" fill="#C4C4C4"/>
<path d="M12.4864 8.03137H10.9805C10.4607 8.03137 10.0393 8.45277 10.0393 8.97255C10.0393 9.49233 10.4607 9.91373 10.9805 9.91373H12.4864C13.0062 9.91373 13.4275 9.49233 13.4275 8.97255C13.4275 8.45277 13.0062 8.03137 12.4864 8.03137Z" fill="#C4C4C4"/>
<path d="M17.0039 9.91373H18.5098C19.0296 9.91373 19.451 9.49233 19.451 8.97255C19.451 8.45277 19.0296 8.03137 18.5098 8.03137H17.0039C16.4841 8.03137 16.0627 8.45277 16.0627 8.97255C16.0627 9.49233 16.4841 9.91373 17.0039 9.91373Z" fill="#C4C4C4"/>
<path d="M12.4864 12.0471H10.9805C10.4607 12.0471 10.0393 12.4685 10.0393 12.9882C10.0393 13.508 10.4607 13.9294 10.9805 13.9294H12.4864C13.0062 13.9294 13.4275 13.508 13.4275 12.9882C13.4275 12.4685 13.0062 12.0471 12.4864 12.0471Z" fill="#C4C4C4"/>
<path d="M19.451 12.9882C19.451 12.4685 19.0296 12.0471 18.5098 12.0471H17.0039C16.4841 12.0471 16.0627 12.4685 16.0627 12.9882C16.0627 13.508 16.4841 13.9294 17.0039 13.9294H18.5098C19.0296 13.9294 19.451 13.508 19.451 12.9882Z" fill="#C4C4C4"/>
<path d="M12.4864 16.0627H10.9805C10.4607 16.0627 10.0393 16.4841 10.0393 17.0039C10.0393 17.5237 10.4607 17.9451 10.9805 17.9451H12.4864C13.0062 17.9451 13.4275 17.5237 13.4275 17.0039C13.4275 16.4841 13.0062 16.0627 12.4864 16.0627Z" fill="#C4C4C4"/>
<path d="M12.4864 20.0785H10.9805C10.4607 20.0785 10.0393 20.4999 10.0393 21.0197C10.0393 21.5395 10.4607 21.9608 10.9805 21.9608H12.4864C13.0062 21.9608 13.4275 21.5395 13.4275 21.0197C13.4275 20.4999 13.0062 20.0785 12.4864 20.0785Z" fill="#C4C4C4"/>
<path d="M12.4864 24.0941H10.9805C10.4607 24.0941 10.0393 24.5155 10.0393 25.0353C10.0393 25.5551 10.4607 25.9765 10.9805 25.9765H12.4864C13.0062 25.9765 13.4275 25.5551 13.4275 25.0353C13.4275 24.5155 13.0062 24.0941 12.4864 24.0941Z" fill="#C4C4C4"/>
<path d="M27.9842 19.0118C27.9842 18.492 27.5628 18.0706 27.043 18.0706H24.0313C23.5115 18.0706 23.0901 18.492 23.0901 19.0118C23.0901 19.5316 23.5115 19.953 24.0313 19.953H27.043C27.5628 19.953 27.9842 19.5316 27.9842 19.0118Z" fill="#C4C4C4"/>
</svg>
