<svg width="32" height="32" viewBox="0 0 32 32" fill="none" xmlns="http://www.w3.org/2000/svg">
<path d="M27.6822 24.8076C25.8903 19.7248 23.9836 14.1253 16 14.1253C12.4438 14.1253 9.77703 15.2446 7.8471 17.5472C6.17316 19.5444 5.27191 22.1009 4.31772 24.8076C3.19797 27.9929 5.9491 31.1106 9.19966 30.4861C11.8885 29.969 15.5815 29.0977 20.8598 30.1129L22.8002 30.4861C26.0165 31.1045 28.8114 28.0197 27.6822 24.8076ZM23.1544 28.6448C20.4098 28.117 16.427 27.1869 10.786 28.2716L8.8456 28.6448C7.01297 28.9973 5.44685 27.2407 6.0861 25.431C7.87003 20.3706 9.41072 16.0003 16 16.0003C22.5892 16.0003 24.1299 20.3706 25.9139 25.4311C26.5538 27.2425 24.9847 28.9972 23.1544 28.6448Z" fill="#C4C4C4"/>
<path d="M23.8716 9.7605C25.2932 7.86513 25.2944 4.87563 23.8716 2.97863C22.3263 0.918252 19.6738 0.918751 18.1289 2.97863C16.7073 4.874 16.7061 7.8635 18.1289 9.7605C19.6742 11.8209 22.3267 11.8204 23.8716 9.7605ZM21.0002 3.30706C22.1182 3.30706 23.0627 4.7095 23.0627 6.36956C23.0627 8.02963 22.1182 9.43206 21.0002 9.43206C19.8822 9.43206 18.9377 8.02963 18.9377 6.36956C18.9377 4.7095 19.8822 3.30706 21.0002 3.30706Z" fill="#C4C4C4"/>
<path d="M13.8715 9.7605C15.2932 7.86513 15.2944 4.87563 13.8715 2.97863C12.3263 0.918252 9.67386 0.918751 8.12892 2.97863C6.70729 4.874 6.70611 7.8635 8.12892 9.7605C9.67417 11.8209 12.3267 11.8204 13.8715 9.7605ZM11.0002 3.30706C12.1182 3.30706 13.0627 4.7095 13.0627 6.36956C13.0627 8.02963 12.1182 9.43206 11.0002 9.43206C9.88223 9.43206 8.93773 8.02963 8.93773 6.36956C8.93773 4.7095 9.88223 3.30706 11.0002 3.30706Z" fill="#C4C4C4"/>
<path d="M6.875 12.8695C6.875 10.9741 5.33294 9.43201 3.4375 9.43201C1.54206 9.43201 0 10.9741 0 12.8695C0 14.7649 1.54206 16.307 3.4375 16.307C5.33294 16.307 6.875 14.7649 6.875 12.8695ZM3.4375 14.432C2.57594 14.432 1.875 13.7311 1.875 12.8695C1.875 12.0079 2.57594 11.307 3.4375 11.307C4.29906 11.307 5 12.0079 5 12.8695C5 13.7311 4.29906 14.432 3.4375 14.432Z" fill="#C4C4C4"/>
<path d="M28.5625 9.43201C26.6671 9.43201 25.125 10.9741 25.125 12.8695C25.125 14.7649 26.6671 16.307 28.5625 16.307C30.4579 16.307 32 14.7649 32 12.8695C32 10.9741 30.4579 9.43201 28.5625 9.43201ZM28.5625 14.432C27.7009 14.432 27 13.7311 27 12.8695C27 12.0079 27.7009 11.307 28.5625 11.307C29.4241 11.307 30.125 12.0079 30.125 12.8695C30.125 13.7311 29.4241 14.432 28.5625 14.432Z" fill="#C4C4C4"/>
<path d="M18.5 21.432H16.9375V19.8695C16.9375 19.3518 16.5178 18.932 16 18.932C15.4822 18.932 15.0625 19.3518 15.0625 19.8695V21.432H13.5C12.9822 21.432 12.5625 21.8518 12.5625 22.3695C12.5625 22.8873 12.9822 23.307 13.5 23.307H15.0625V24.8695C15.0625 25.3873 15.4822 25.807 16 25.807C16.5178 25.807 16.9375 25.3873 16.9375 24.8695V23.307H18.5C19.0177 23.307 19.4375 22.8873 19.4375 22.3695C19.4375 21.8518 19.0177 21.432 18.5 21.432Z" fill="#C4C4C4"/>
</svg>
