<svg width="32" height="32" viewBox="0 0 32 32" fill="none" xmlns="http://www.w3.org/2000/svg">
<g clip-path="url(#clip0)">
<path d="M0.9375 32H10.5048C11.0226 32 11.4423 31.5802 11.4423 31.0625V30.018C11.4423 27.8507 10.2309 25.961 8.44963 24.9904C9.08225 24.3188 9.47119 23.4152 9.47119 22.4219C9.47119 20.3541 7.78894 18.6719 5.72119 18.6719C3.65344 18.6719 1.97119 20.3541 1.97119 22.4219C1.97119 23.4152 2.36013 24.3188 2.99275 24.9904C1.21144 25.961 0 27.8507 0 30.018V31.0625C0 31.5802 0.41975 32 0.9375 32ZM3.84619 22.4219C3.84619 21.388 4.68731 20.5469 5.72119 20.5469C6.75506 20.5469 7.59619 21.388 7.59619 22.4219C7.59619 23.4557 6.75506 24.2969 5.72119 24.2969C4.68731 24.2969 3.84619 23.4557 3.84619 22.4219ZM5.72119 26.1719C7.72975 26.1719 9.56731 27.7464 9.56731 30.125H1.875C1.875 27.7588 3.70188 26.1719 5.72119 26.1719Z" fill="#C4C4C4"/>
<path d="M29.0074 24.9904C29.64 24.3188 30.029 23.4152 30.029 22.4219C30.029 20.3541 28.3467 18.6719 26.279 18.6719C24.2112 18.6719 22.529 20.3541 22.529 22.4219C22.529 23.4152 22.9179 24.3188 23.5505 24.9904C21.7693 25.961 20.5579 27.8506 20.5579 30.018V31.0625C20.5579 31.5802 20.9776 32 21.4954 32H31.0626C31.5804 32 32.0001 31.5802 32.0001 31.0625V30.018C32.0001 27.8507 30.7887 25.961 29.0074 24.9904ZM24.4039 22.4219C24.4039 21.388 25.245 20.5469 26.2789 20.5469C27.3128 20.5469 28.1539 21.388 28.1539 22.4219C28.1539 23.4557 27.3128 24.2969 26.2789 24.2969C25.245 24.2969 24.4039 23.4557 24.4039 22.4219ZM30.1251 30.125H22.4328C22.4328 27.7588 24.2597 26.1719 26.2789 26.1719C28.2874 26.1719 30.1251 27.7463 30.1251 30.125Z" fill="#C4C4C4"/>
<path d="M21.7214 12.3906V11.3461C21.7214 9.17881 20.5099 7.28912 18.7287 6.31856C19.3612 5.64694 19.7502 4.74331 19.7502 3.75C19.7502 1.68225 18.0679 0 16.0002 0C13.9324 0 12.2502 1.68225 12.2502 3.75C12.2502 4.74331 12.6391 5.64694 13.2717 6.31856C11.4905 7.28912 10.2791 9.17881 10.2791 11.3461V12.3906C10.2791 12.9084 10.6988 13.3281 11.2166 13.3281H20.7839C21.3016 13.3281 21.7214 12.9084 21.7214 12.3906ZM14.1252 3.75C14.1252 2.71613 14.9663 1.875 16.0002 1.875C17.0341 1.875 17.8752 2.71613 17.8752 3.75C17.8752 4.78387 17.0341 5.625 16.0002 5.625C14.9663 5.625 14.1252 4.78387 14.1252 3.75ZM19.8464 11.4531H12.154C12.154 9.08694 13.9809 7.5 16.0002 7.5C18.0086 7.5 19.8464 9.07438 19.8464 11.4531Z" fill="#C4C4C4"/>
<path d="M19.7873 23.6905C18.5625 24.0929 17.2709 24.2969 15.9487 24.2969C14.6727 24.2969 13.4233 24.1063 12.2351 23.7305C11.7413 23.5745 11.2146 23.848 11.0585 24.3416C10.9024 24.8352 11.176 25.362 11.6697 25.5182C13.0409 25.9519 14.4806 26.1718 15.9486 26.1718C17.47 26.1718 18.9584 25.9363 20.3724 25.4719C20.8644 25.3103 21.1321 24.7805 20.9706 24.2886C20.809 23.7967 20.2792 23.5289 19.7873 23.6905Z" fill="#C4C4C4"/>
<path d="M7.35798 7.76933C6.3226 8.76739 5.44241 9.92764 4.74185 11.218C4.01585 12.5551 3.5126 13.9755 3.2461 15.4397C3.14166 16.0135 3.58197 16.5452 4.16954 16.5452C4.61379 16.5452 5.00841 16.228 5.09079 15.7754C5.32166 14.5071 5.75866 13.2748 6.3896 12.1126C6.99854 10.9912 7.7621 9.98408 8.65922 9.11933C9.03197 8.76002 9.04291 8.16652 8.6836 7.79371C8.32422 7.42096 7.73079 7.41002 7.35798 7.76933Z" fill="#C4C4C4"/>
<path d="M24.6419 7.76942C24.269 7.41004 23.6755 7.42104 23.3162 7.79379C22.9569 8.1666 22.9678 8.7601 23.3406 9.11942C24.2377 9.98417 25.0014 10.9912 25.6102 12.1127C26.2412 13.2749 26.6782 14.5073 26.909 15.7755C27.0017 16.2844 27.4892 16.6227 27.9992 16.53C28.5086 16.4373 28.8464 15.9491 28.7537 15.4398C28.4872 13.9756 27.984 12.5552 27.258 11.218C26.5574 9.92773 25.6772 8.76742 24.6419 7.76942Z" fill="#C4C4C4"/>
</g>
<defs>
<clipPath id="clip0">
<rect width="32" height="32" fill="white"/>
</clipPath>
</defs>
</svg>
