<svg width="30" height="30" viewBox="0 0 30 30" fill="none" xmlns="http://www.w3.org/2000/svg">
<path d="M24.947 6.81305C24.4735 6.5557 24.1213 6.13846 23.9406 5.6492C25.0077 5.20945 25.7609 4.15863 25.7609 2.93479C25.7609 1.31654 24.4444 0 22.8262 0H7.174C5.55576 0 4.23922 1.31654 4.23922 2.93479C4.23922 4.15863 4.99256 5.20945 6.05955 5.6492C5.87891 6.13846 5.5267 6.5557 5.0532 6.81305C3.31842 7.7557 2.28271 9.40418 2.28271 11.2227C2.28271 11.8328 2.28271 24.5011 2.28271 25.1087C2.28271 27.8057 4.47693 29.9999 7.174 29.9999H22.8262C25.5232 29.9999 27.7174 27.8057 27.7174 25.1087V11.2228C27.7174 9.40424 26.6817 7.7557 24.947 6.81305ZM7.174 1.9565H22.8262C23.3656 1.9565 23.8044 2.39537 23.8044 2.93479C23.8044 3.4742 23.3656 3.91307 22.8262 3.91307H7.174C6.63459 3.91307 6.19572 3.4742 6.19572 2.93479C6.19572 2.39537 6.63459 1.9565 7.174 1.9565ZM25.7609 25.1087C25.7609 26.727 24.4444 28.0435 22.8262 28.0435H7.174C5.55576 28.0435 4.23922 26.727 4.23922 25.1087V13.3984C4.86494 13.2302 5.43875 12.9013 5.9092 12.4309C6.60664 11.7335 7.74137 11.7335 8.43881 12.4309C9.89908 13.8912 12.275 13.8912 13.7353 12.4309C14.0732 12.093 14.5224 11.907 15.0001 11.907C15.4779 11.907 15.9271 12.0931 16.2649 12.4309C17.7252 13.8912 20.1011 13.8912 21.5615 12.4309C22.2588 11.7335 23.3937 11.7335 24.0911 12.4309C24.5615 12.9013 25.1354 13.2302 25.7611 13.3984V25.1087H25.7609ZM25.4744 11.0474C24.767 10.34 23.8265 9.95051 22.8262 9.95051C21.8258 9.95051 20.8853 10.34 20.1779 11.0474C19.4806 11.7448 18.3457 11.7448 17.6483 11.0474C16.9409 10.34 16.0004 9.95051 15.0001 9.95051C13.9998 9.95051 13.0593 10.34 12.3519 11.0474C11.6545 11.7448 10.5198 11.7448 9.82232 11.0474C9.11498 10.34 8.17449 9.95051 7.17412 9.95051C6.17375 9.95051 5.23326 10.34 4.52592 11.0474C4.43762 11.1357 4.34146 11.2134 4.23939 11.2804C4.23939 10.0595 4.94826 9.09691 5.98754 8.53213C7.02939 7.96594 7.76334 6.99217 8.03568 5.86957H12.6385L11.3737 7.13438C10.9917 7.51641 10.9917 8.1358 11.3737 8.51783C11.7557 8.89986 12.3751 8.89986 12.7572 8.51783L14.8825 6.39258L17.2802 8.55293C17.6822 8.91504 18.3007 8.88182 18.6618 8.48092C19.0235 8.07949 18.9913 7.46098 18.5899 7.09928L17.2248 5.86951H21.9646C22.2369 6.99223 22.9709 7.96594 24.0128 8.53207C25.0478 9.09451 25.7609 10.0546 25.7609 11.2804C25.6589 11.2134 25.5628 11.1357 25.4744 11.0474Z" fill="#C4C4C4"/>
<path d="M16.1551 18.3309C16.376 17.6519 16.8095 17.0938 17.2218 16.7951C17.6593 16.4781 17.7571 15.8664 17.4401 15.4289C17.1231 14.9914 16.5115 14.8937 16.074 15.2106C15.6691 15.5039 15.3118 15.8725 15.0142 16.2899C14.7134 15.8682 14.3517 15.4965 13.9414 15.2013C13.5029 14.8858 12.8916 14.9855 12.576 15.4241C12.2604 15.8627 12.3602 16.474 12.7987 16.7896C13.2136 17.088 13.6505 17.6464 13.8729 18.3271C11.9644 18.5788 11.0872 19.6709 11.0872 21.1956C11.0872 23.1429 12.6479 26.0869 15.0002 26.0869C17.3526 26.0869 18.9133 23.1429 18.9133 21.1956C18.9133 19.6642 18.0293 18.5867 16.1551 18.3309ZM15.0002 24.1304C14.084 24.1304 13.0437 22.4258 13.0437 21.1956C13.0437 20.737 13.0437 20.2173 15.0002 20.2173C16.9567 20.2173 16.9567 20.737 16.9567 21.1956C16.9567 22.4283 15.9148 24.1304 15.0002 24.1304Z" fill="#C4C4C4"/>
</svg>
