<svg width="32" height="32" viewBox="0 0 32 32" fill="none" xmlns="http://www.w3.org/2000/svg">
<path d="M8.93889 21.7295H9.95683H27.3126C27.732 21.7295 28.1015 21.454 28.2212 21.0521L31.9606 8.49653C32.046 8.20966 31.9909 7.89928 31.812 7.65928C31.6331 7.41928 31.3513 7.27791 31.052 7.27791H6.92433L5.64857 2.99415C5.52889 2.59227 5.15932 2.31677 4.73995 2.31677H0.948064C0.424501 2.31671 0 2.74115 0 3.26477C0 3.78834 0.424501 4.21284 0.948064 4.21284H4.03313L5.30282 8.47604C5.3067 8.4901 5.31076 8.50403 5.31526 8.51779L8.68814 19.8429C6.76289 19.9724 5.23582 21.5791 5.23582 23.5366C5.23582 25.5784 6.89701 27.2396 8.93883 27.2396H9.88002C10.2913 28.6498 11.5948 29.6835 13.1361 29.6835C14.6773 29.6835 15.9808 28.6499 16.3922 27.2396H21.4223C21.8336 28.6498 23.1371 29.6835 24.6784 29.6835C26.2196 29.6835 27.5231 28.6499 27.9344 27.2396H29.1559C29.6794 27.2396 30.1039 26.8151 30.1039 26.2916C30.1039 25.768 29.6794 25.3435 29.1559 25.3435H27.9344C27.5231 23.9333 26.2196 22.8996 24.6784 22.8996C23.1371 22.8996 21.8335 23.9333 21.4223 25.3435H16.3922C15.9808 23.9333 14.6773 22.8996 13.1361 22.8996C11.5948 22.8996 10.2913 23.9333 9.88002 25.3435H8.93883C7.94245 25.3435 7.13189 24.5329 7.13189 23.5365C7.13189 22.5401 7.94252 21.7295 8.93889 21.7295ZM22.8467 9.17391H29.7805L28.4755 13.5556H22.8467V9.17391ZM22.8466 15.4517H27.9107L26.6058 19.8334H22.8466V15.4517ZM15.8315 9.17391H20.9506V13.5556H15.8315V9.17391ZM15.8315 15.4517H20.9505V19.8334H15.8315V15.4517ZM13.9355 19.8334H10.6637L9.35877 15.4517H13.9355V19.8334ZM7.48914 9.17391H13.9355V13.5556H8.79408L7.48914 9.17391ZM24.6784 24.7957C25.5032 24.7957 26.1742 25.4667 26.1742 26.2915C26.1742 27.1163 25.5032 27.7873 24.6784 27.7873C23.8536 27.7873 23.1826 27.1163 23.1826 26.2915C23.1826 25.4667 23.8536 24.7957 24.6784 24.7957ZM13.1362 24.7957C13.961 24.7957 14.632 25.4667 14.632 26.2915C14.632 27.1163 13.961 27.7873 13.1362 27.7873C12.3113 27.7873 11.6403 27.1163 11.6403 26.2915C11.6403 25.4667 12.3113 24.7957 13.1362 24.7957Z" fill="#C4C4C4"/>
</svg>
