<svg width="28" height="28" viewBox="0 0 28 28" fill="none" xmlns="http://www.w3.org/2000/svg">
<path d="M14.0035 0H13.9965C6.27725 0 0 6.279 0 14C0 17.0625 0.987 19.901 2.66525 22.2057L0.9205 27.4067L6.30175 25.6865C8.5155 27.153 11.1562 28 14.0035 28C21.7227 28 28 21.7192 28 14C28 6.28075 21.7227 0 14.0035 0Z" fill="#4CAF50"/>
<path d="M22.1497 19.7698C21.812 20.7236 20.4715 21.5146 19.4022 21.7456C18.6707 21.9013 17.7152 22.0256 14.4987 20.6921C10.3845 18.9876 7.73497 14.8068 7.52847 14.5356C7.33072 14.2643 5.86597 12.3218 5.86597 10.3128C5.86597 8.30382 6.88622 7.32557 7.29747 6.90557C7.63522 6.56082 8.19347 6.40332 8.72897 6.40332C8.90222 6.40332 9.05797 6.41207 9.19797 6.41907C9.60922 6.43657 9.81572 6.46107 10.087 7.11032C10.4247 7.92407 11.2472 9.93307 11.3452 10.1396C11.445 10.3461 11.5447 10.6261 11.4047 10.8973C11.2735 11.1773 11.158 11.3016 10.9515 11.5396C10.745 11.7776 10.549 11.9596 10.3425 12.2151C10.1535 12.4373 9.93997 12.6753 10.178 13.0866C10.416 13.4891 11.2385 14.8313 12.4495 15.9093C14.0122 17.3006 15.2792 17.7451 15.7325 17.9341C16.0702 18.0741 16.4727 18.0408 16.7195 17.7783C17.0327 17.4406 17.4195 16.8806 17.8132 16.3293C18.0932 15.9338 18.4467 15.8848 18.8177 16.0248C19.1957 16.1561 21.196 17.1448 21.6072 17.3496C22.0185 17.5561 22.2897 17.6541 22.3895 17.8273C22.4875 18.0006 22.4875 18.8143 22.1497 19.7698Z" fill="#FAFAFA"/>
</svg>
